<?xml version="1.0" standalone="no"?>
<svg xmlns:xlink="http://www.w3.org/1999/xlink" id="wave" style="transform:rotate(180deg); transition: 0.3s" viewBox="0 0 1440 100" version="1.1" xmlns="http://www.w3.org/2000/svg"><defs><linearGradient id="sw-gradient-0" x1="0" x2="0" y1="1" y2="0"><stop stop-color="rgba(255, 242, 225, 1)" offset="0%"/><stop stop-color="rgba(255, 242, 225, 1)" offset="100%"/></linearGradient></defs><path style="transform:translate(0, 0px); opacity:1" fill="url(#sw-gradient-0)" d="M0,10L48,8.3C96,7,192,3,288,8.3C384,13,480,27,576,41.7C672,57,768,73,864,80C960,87,1056,83,1152,73.3C1248,63,1344,47,1440,35C1536,23,1632,17,1728,21.7C1824,27,1920,43,2016,56.7C2112,70,2208,80,2304,70C2400,60,2496,30,2592,20C2688,10,2784,20,2880,20C2976,20,3072,10,3168,11.7C3264,13,3360,27,3456,30C3552,33,3648,27,3744,26.7C3840,27,3936,33,4032,38.3C4128,43,4224,47,4320,55C4416,63,4512,77,4608,75C4704,73,4800,57,4896,45C4992,33,5088,27,5184,28.3C5280,30,5376,40,5472,45C5568,50,5664,50,5760,56.7C5856,63,5952,77,6048,83.3C6144,90,6240,90,6336,88.3C6432,87,6528,83,6624,78.3C6720,73,6816,67,6864,63.3L6912,60L6912,100L6864,100C6816,100,6720,100,6624,100C6528,100,6432,100,6336,100C6240,100,6144,100,6048,100C5952,100,5856,100,5760,100C5664,100,5568,100,5472,100C5376,100,5280,100,5184,100C5088,100,4992,100,4896,100C4800,100,4704,100,4608,100C4512,100,4416,100,4320,100C4224,100,4128,100,4032,100C3936,100,3840,100,3744,100C3648,100,3552,100,3456,100C3360,100,3264,100,3168,100C3072,100,2976,100,2880,100C2784,100,2688,100,2592,100C2496,100,2400,100,2304,100C2208,100,2112,100,2016,100C1920,100,1824,100,1728,100C1632,100,1536,100,1440,100C1344,100,1248,100,1152,100C1056,100,960,100,864,100C768,100,672,100,576,100C480,100,384,100,288,100C192,100,96,100,48,100L0,100Z"/></svg>